<svg class="mb-6" width="80" height="81" viewBox="0 0 80 81" fill="none" xmlns="http://www.w3.org/2000/svg">
<path d="M11.4478 65.6965L11.7673 65.3947L41.5672 33.622L53.5298 46.4198H32.5509L29.5514 49.5971C29.2142 50.0409 28.8414 50.8751 29.8531 51.3721L67.9416 65.9628C68.5176 66.1558 69.1126 66.2868 69.7165 66.3533C70.0489 66.4152 70.3907 66.4044 70.7185 66.3216C71.0464 66.2389 71.3524 66.0862 71.6156 65.874C71.8567 65.6303 72.0431 65.3381 72.1625 65.0167C72.2818 64.6953 72.3314 64.3522 72.3078 64.0102C72.3078 64.0102 72.3078 63.3712 72.3078 63.0872C72.3078 62.8032 72.0947 62.324 72.0947 62.324L56.121 17.8065C55.8398 16.9478 55.3233 16.1852 54.6302 15.6055L54.4882 15.4813C53.8636 15.03 53.1266 14.7597 52.3583 14.7003H28.7882C27.9055 14.6954 27.0418 14.9571 26.3103 15.4511C25.5788 15.9452 25.0135 16.6486 24.6883 17.4693C24.6883 17.4693 7.80933 63.744 7.79159 63.815C7.6252 64.2395 7.61415 64.7092 7.76028 65.1411C7.90641 65.5731 8.20035 65.9395 8.5903 66.1758C9.05287 66.4218 9.58368 66.5082 10.1004 66.4216C10.6171 66.3349 11.0908 66.08 11.4478 65.6965Z" fill="#0E2A21"></path>
<path d="M53.6007 17.7532C53.3879 17.4368 53.0996 17.1786 52.7618 17.0019C52.4239 16.8252 52.0473 16.7357 51.6661 16.7415H28.9124C27.1376 16.9012 26.7294 17.9307 26.6939 18.055L9.93921 64.2054L53.6007 17.7532Z" fill="#FBBA00"></path>
</svg>